<?xml version="1.0" encoding="UTF-8" standalone="no"?>
<svg width="100px" height="66px" viewBox="0 0 100 66" version="1.1" xmlns="http://www.w3.org/2000/svg" xmlns:xlink="http://www.w3.org/1999/xlink">
    <!-- Generator: Sketch 3.8.3 (29802) - http://www.bohemiancoding.com/sketch -->
    <title>AirPortr white centred strapline Copy</title>
    <desc>Created with Sketch.</desc>
    <defs></defs>
    <g id="Symbols" stroke="none" stroke-width="1" fill="none" fill-rule="evenodd">
        <g id="APxBA-lockup" transform="translate(0.000000, -16.000000)" fill="#FFFFFF">
            <g id="Group-2">
                <g id="AirPortr-white-centred-strapline-Copy" transform="translate(0.000000, 16.888235)">
                    <path d="M97.5639616,2.02633972 C97.65131,2.02633972 97.7353896,2.02381738 97.8127501,2.01787187 C97.8901106,2.01282719 97.9574833,1.99661214 98.0188632,1.97048791 C98.0777008,1.94418351 98.1270953,1.90364591 98.1632332,1.84959577 C98.1995527,1.79500513 98.2177125,1.71861426 98.2177125,1.62168435 C98.2177125,1.54006864 98.1995527,1.4739473 98.1699523,1.42584267 C98.1369016,1.37773805 98.0940446,1.34026329 98.0444685,1.31287788 C97.9939844,1.28783465 97.934602,1.26801627 97.8688637,1.25990875 C97.8027623,1.25035989 97.7368424,1.24693671 97.6745545,1.24693671 L97.1639024,1.24693671 L97.1639024,2.02633972 L97.5639616,2.02633972 L97.5639616,2.02633972 Z M97.7353896,0.936328579 C98.0303039,0.936328579 98.2473128,0.994342396 98.3887773,1.1110907 C98.5304233,1.22693816 98.6012463,1.40386228 98.6012463,1.63916056 C98.6012463,1.85950496 98.540048,2.02147521 98.4152905,2.12435064 C98.2899882,2.22866741 98.1356304,2.28812256 97.9511274,2.30722028 L98.6575415,3.39002474 L98.2442257,3.39002474 L97.5721335,2.33694786 L97.1639024,2.33694786 L97.1639024,3.39002474 L96.7789158,3.39002474 L96.7789158,0.936328579 L97.7353896,0.936328579 L97.7353896,0.936328579 Z M95.988422,2.8722244 C96.0788576,3.0898663 96.1990751,3.28048312 96.3572465,3.44101203 C96.5134203,3.60262195 96.6977417,3.73036045 96.9120267,3.82116468 C97.1241326,3.91286975 97.3569405,3.95881237 97.6051842,3.95881237 C97.8505224,3.95881237 98.0777008,3.91286975 98.2899882,3.82116468 C98.5024573,3.73036045 98.6855075,3.60262195 98.8420445,3.44101203 C98.9980367,3.28048312 99.1198886,3.0898663 99.209053,2.8722244 C99.2978542,2.65278084 99.3441615,2.41387922 99.3441615,2.15606006 C99.3441615,1.90544758 99.2978542,1.67086997 99.209053,1.45268758 C99.1198886,1.23702752 98.9980367,1.04731153 98.8420445,0.889304958 C98.6855075,0.73093805 98.5024573,0.604280557 98.2899882,0.512575487 C98.0777008,0.420329916 97.8505224,0.375468301 97.6051842,0.375468301 C97.3569405,0.375468301 97.1241326,0.420329916 96.9120267,0.512575487 C96.6977417,0.604280557 96.5134203,0.73093805 96.3572465,0.889304958 C96.1990751,1.04731153 96.0788576,1.23702752 95.988422,1.45268758 C95.9010737,1.67086997 95.8564007,1.90544758 95.8564007,2.15606006 C95.8564007,2.41387922 95.9010737,2.65278084 95.988422,2.8722244 L95.988422,2.8722244 Z M95.6408445,1.33035409 C95.7541613,1.0754176 95.9077928,0.854893036 96.1021021,0.666798552 C96.2962297,0.480866072 96.523045,0.333669526 96.7818213,0.226109749 C97.0405977,0.119991309 97.3140835,0.0666618384 97.6051842,0.0666618384 C97.8968297,0.0666618384 98.1699523,0.119991309 98.4252784,0.226109749 C98.6840547,0.333669526 98.9057852,0.480866072 99.0986417,0.666798552 C99.2927694,0.854893036 99.4447665,1.0754176 99.5577201,1.33035409 C99.6714001,1.58565092 99.7273321,1.85950496 99.7273321,2.15606006 C99.7273321,2.45928134 99.6714001,2.73836022 99.5577201,2.99690006 C99.4447665,3.25291755 99.2927694,3.47434295 99.0986417,3.66315811 C98.9057852,3.85269393 98.6840547,4.00115164 98.4252784,4.10528825 C98.1699523,4.21032568 97.8968297,4.26257415 97.6051842,4.26257415 C97.3140835,4.26257415 97.0405977,4.21032568 96.7818213,4.10528825 C96.523045,4.00115164 96.2962297,3.85269393 96.1021021,3.66315811 C95.9077928,3.47434295 95.7541613,3.25291755 95.6408445,2.99690006 C95.5275277,2.73836022 95.4714141,2.45928134 95.4714141,2.15606006 C95.4714141,1.85950496 95.5275277,1.58565092 95.6408445,1.33035409 L95.6408445,1.33035409 Z" id="Fill-1"></path>
                    <path d="M63.9054172,27.4129695 C62.8694037,28.7035066 62.5240054,29.1110447 62.3393208,29.5416441 C63.2073566,28.7777355 63.822972,27.9039249 66.1842838,26.8106708 C65.9585581,26.3699819 64.4669166,26.6820314 63.9054172,27.4129695" id="Fill-2"></path>
                    <path d="M55.8390397,34.5396605 C55.8257831,34.6246994 55.5720914,35.6215641 55.5524789,35.7040807 C57.6388521,36.2267455 59.7017992,36.1092765 60.9399307,35.9604585 C61.1113587,35.7988486 61.2624478,35.6439048 61.4011883,35.4999513 C65.1947592,31.4978988 70.5112064,28.8368303 74.0612552,27.869513 C73.118946,26.6238374 71.25848,26.9663352 69.8067899,27.3942321 C63.9250298,29.1283407 60.9871461,32.6511486 54.274396,27.8010495 C52.5822708,26.5773543 50.3638763,27.5598057 50.3638763,27.5598057 C50.3638763,27.5598057 56.1780821,31.701848 55.8390397,34.5396605" id="Fill-3"></path>
                    <path d="M66.8739909,26.8385967 C65.8118274,27.3313538 64.0517848,28.6804452 63.3094144,29.2629256 C64.82085,28.8379113 66.1657608,27.6898864 69.8984966,26.8205799 C69.4314279,26.4321396 68.3131508,26.1726989 66.8739909,26.8385967" id="Fill-4"></path>
                    <path d="M53.0168336,38.9852845 C51.4436548,42.3769307 48.6058313,45.9847775 44.1171053,44.6733409 C49.4302837,47.6884379 55.4800215,43.9380789 59.3320668,39.7711735 C59.2016798,39.7733355 59.0720193,39.7736958 58.9429035,39.7736958 C56.4098005,39.7736958 54.3572044,39.3609329 53.0168336,38.9852845" id="Fill-5"></path>
                    <path d="M53.9222785,36.6991437 C55.5484837,37.1335267 58.1542257,37.5882685 61.3401715,37.2944159 C61.5293961,37.0245256 61.7093592,36.7578782 61.8735233,36.4969962 C56.8741452,36.933361 54.1510913,35.9656833 54.1510913,35.9656833 L53.9222785,36.6991437" id="Fill-6"></path>
                    <path d="M53.6502455,37.467016 C53.5569044,37.718169 53.455573,37.9756279 53.3469777,38.23669 C54.8337161,38.6366611 57.1943015,39.0762689 60.0697157,38.9397022 C60.2932622,38.6757573 60.5042784,38.412353 60.7076676,38.1500296 C60.2126329,38.1813787 59.7261333,38.1981343 59.2617886,38.1981343 C56.8941209,38.1981343 54.9644663,37.8260891 53.6502455,37.467016" id="Fill-7"></path>
                    <path d="M8.55778029,11.4714214 C7.28532689,11.4714214 6.22788488,11.9176954 5.38490947,12.8093425 C4.54502122,13.7031516 4.12226233,14.8475733 4.12226233,16.2424272 C4.12226233,17.6480911 4.55046914,18.804584 5.40815395,19.7115453 C6.26638354,20.621029 7.32164638,21.073789 8.57248968,21.073789 C9.86709797,21.073789 10.9387046,20.6278753 11.7900335,19.7358679 C12.6431783,18.8420587 13.0693876,17.6733145 13.0693876,16.2267526 C13.0693876,14.8124407 12.6431783,13.663695 11.7900335,12.7873621 C10.9387046,11.9099482 9.86074206,11.4714214 8.55778029,11.4714214 M12.8883349,8.12175409 L17.0066021,8.12175409 L17.0066021,24.393008 L12.8883349,24.393008 L12.8883349,22.6738533 C12.0831318,23.4345189 11.2779286,23.9784435 10.4681856,24.3133742 C9.66080326,24.6461428 8.78350593,24.8131578 7.83847275,24.8131578 C5.7192304,24.8131578 3.88654883,23.9979015 2.33697771,22.3675691 C0.790856937,20.7374169 0.0170701612,18.7099962 0.0170701612,16.2890905 C0.0170701612,13.7748582 0.7648885,11.715728 2.26324914,10.1082769 C3.76179138,8.50406875 5.57921875,7.70124401 7.71789204,7.70124401 C8.70305826,7.70124401 9.62666294,7.88663599 10.4910668,8.25579844 C11.3554708,8.62586173 12.1539548,9.17609214 12.8883349,9.91459721 L12.8883349,8.12175409" id="Fill-8"></path>
                    <path d="M18.7303252,24.393008 L22.849682,24.393008 L22.849682,8.12175409 L18.7303252,8.12175409 L18.7303252,24.393008 Z M20.7934539,1.41863599 C21.5129431,1.41863599 22.132372,1.67825682 22.647564,2.19605716 C23.164572,2.71674017 23.4244379,3.34444245 23.4244379,4.08222685 C23.4244379,4.80974173 23.1694751,5.43041749 22.6575518,5.94533515 C22.1452654,6.45809081 21.5329188,6.71446864 20.8214199,6.71446864 C20.0870398,6.71446864 19.4647053,6.45214529 18.9476973,5.92948045 C18.4305078,5.40591476 18.1739106,4.76974462 18.1739106,4.02241136 C18.1739106,3.30336435 18.4305078,2.69151677 18.9413414,2.18200412 C19.4532647,1.67303198 20.0688801,1.41863599 20.7934539,1.41863599 L20.7934539,1.41863599 Z" id="Fill-9"></path>
                    <path d="M42.9100269,11.4714214 C41.6110603,11.4714214 40.5358218,11.9099482 39.6792265,12.7873621 C38.8248105,13.663695 38.3969669,14.8124407 38.3969669,16.2267526 C38.3969669,17.6733145 38.8248105,18.8420587 39.6792265,19.7358679 C40.5358218,20.6278753 41.6110603,21.073789 42.9100269,21.073789 C44.1664998,21.073789 45.2235786,20.621029 46.0847137,19.7115453 C46.9456673,18.804584 47.3742373,17.6480911 47.3742373,16.2424272 C47.3742373,14.8475733 46.9523864,13.7031516 46.1061422,12.8093425 C45.2613509,11.9176954 44.1941026,11.4714214 42.9100269,11.4714214 M38.5763852,8.12175409 L38.5763852,9.91459721 C39.3220243,9.17609214 40.1274091,8.62586173 40.991813,8.25579844 C41.8562169,7.88663599 42.7834535,7.70124401 43.7695277,7.70124401 C45.911833,7.70124401 47.7327107,8.50406875 49.2296185,10.1082769 C50.7277976,11.715728 51.4790663,13.7748582 51.4790663,16.2890905 C51.4790663,18.7099962 50.7050979,20.7374169 49.1555268,22.3675691 C47.6061373,23.9979015 45.7718213,24.8131578 43.6456783,24.8131578 C42.7011899,24.8131578 41.8217134,24.6461428 41.0068856,24.3133742 C40.1933289,23.9784435 39.3815883,23.4345189 38.5763852,22.6738533 C38.5763852,22.6738533 38.3936981,26.9416523 38.5335282,29.423995 C38.7837695,33.8876357 38.9136116,41.4413228 45.5034203,43.9006041 C37.2886776,42.3300872 35.612533,35.0073744 34.917378,30.1808771 C34.4897159,27.21947 34.4879,8.12175409 34.4879,8.12175409 L38.5763852,8.12175409" id="Fill-10"></path>
                    <polyline id="Fill-11" points="83.1465761 2.12254897 87.2664777 2.12254897 87.2664777 8.12175409 89.7115059 8.12175409 89.7115059 11.6364545 87.2664777 11.6364545 87.2664777 24.39517 83.1465761 24.39517 83.1465761 11.6364545 81.0375032 11.6364545 81.0375032 8.12175409 83.1465761 8.12175409 83.1465761 2.12254897"></polyline>
                    <path d="M91.0863802,8.12175409 L94.6151821,8.12175409 L94.6151821,10.1713354 C94.9950839,9.36220479 95.5042832,8.74855554 96.1366056,8.33020747 C96.7718335,7.91203955 97.4666254,7.70268535 98.2213444,7.70268535 C98.754333,7.70268535 99.3092948,7.84159421 99.895673,8.12175409 L99.8924042,11.7247364 C99.411171,11.4854744 98.4138377,11.0927101 97.4188652,11.2761202 C96.7968939,11.3921479 96.2517384,11.6651011 95.8140885,12.4436032 C95.3758938,13.2213847 95.1585217,14.74704 95.1585217,17.0203889 L95.1715967,17.8131242 L95.1715967,24.393008 L91.0863802,24.393008 L91.0863802,8.12175409" id="Fill-12"></path>
                    <path d="M70.970648,8.12175409 L74.500721,8.12175409 L74.500721,10.1713354 C74.8828021,9.36220479 75.3914566,8.74855554 76.0270477,8.33020747 C76.6610044,7.91203955 77.3525275,7.70268535 78.1063386,7.70268535 C78.6415063,7.70268535 79.1982841,7.84159421 79.7830279,8.12175409 L79.7779432,11.7247364 C79.2988891,11.4854744 78.302827,11.0927101 77.3078546,11.2761202 C76.6858833,11.3921479 76.1390933,11.6651011 75.7012618,12.4436032 C75.2645199,13.2213847 75.0444238,14.74704 75.0444238,17.0203889 L75.0604044,17.8131242 L75.0604044,24.393008 L70.970648,24.393008 L70.970648,8.12175409" id="Fill-13"></path>
                    <path d="M24.5361776,8.12175409 L28.0646162,8.12175409 L28.0646162,10.1713354 C28.4485132,9.36220479 28.9575309,8.74855554 29.5913061,8.33020747 C30.2250812,7.91203955 30.9180571,7.70268535 31.6720497,7.70268535 C32.2057647,7.70268535 32.7654481,7.84159421 33.3483759,8.12175409 L33.3471047,11.7247364 C32.8646003,11.4854744 31.866359,11.0927101 30.8735657,11.2761202 C30.2515944,11.3921479 29.7062572,11.6651011 29.2662466,12.4436032 C28.8287783,13.2213847 28.6114062,14.74704 28.6114062,17.0203889 L28.6262972,17.8131242 L28.6262972,24.393008 L24.5361776,24.393008 L24.5361776,8.12175409" id="Fill-14"></path>
                    <path d="M62.436657,11.8937331 C62.436657,11.7083412 62.2852047,11.5580818 62.0972513,11.5580818 L60.2051874,11.5580818 C60.0194132,11.5580818 59.8679609,11.7083412 59.8679609,11.8937331 L59.8679609,12.4124343 L62.436657,12.4124343 L62.436657,11.8937331" id="Fill-15"></path>
                    <path d="M66.4281692,16.4914182 L66.4281692,18.0693219 C66.4281692,19.2337421 65.4776881,20.1751153 64.305658,20.1751153 L58.0004126,20.1751153 C56.8263851,20.1751153 55.876812,19.2337421 55.876812,18.0693219 L55.876812,14.5182277 C55.876812,13.3550687 56.8263851,12.4124343 58.0004126,12.4124343 L59.3674783,12.4124343 L59.3674783,11.8937331 C59.3674783,11.435388 59.7428403,11.0619015 60.2051874,11.0619015 L62.0990673,11.0619015 C62.5614144,11.0619015 62.9389556,11.435388 62.9389556,11.8937331 L62.9389556,12.4124343 L64.305658,12.4124343 C65.4776881,12.4124343 66.4281692,13.3550687 66.4281692,14.5182277 L66.4281692,16.4914182 L66.4281692,16.4914182 Z M61.151855,7.66448992 C56.3772946,7.66448992 52.5078159,11.5042118 52.5078159,16.2366618 C52.5078159,20.9701929 56.3772946,24.8066718 61.151855,24.8066718 C65.9255074,24.8066718 69.8000708,20.9701929 69.8000708,16.2366618 C69.8000708,11.5042118 65.9255074,7.66448992 61.151855,7.66448992 L61.151855,7.66448992 Z" id="Fill-16"></path>
                    <polyline id="Fill-17" points="0.0170701612 54.3018328 0.815735789 54.3018328 0.815735789 61.5726575 3.88818321 61.5726575 3.88818321 62.3495382 0.0170701612 62.3495382 0.0170701612 54.3018328"></polyline>
                    <path d="M4.93073423,56.3971765 L5.69126439,56.3971765 L5.69126439,59.1766148 C5.69126439,59.8545837 5.72722068,60.3213968 5.79931488,60.5772341 C5.90827335,60.9417122 6.11511286,61.2299796 6.42237576,61.4409553 C6.72782269,61.6531922 7.09428636,61.7591305 7.51704525,61.7591305 C7.94125691,61.7591305 8.30118308,61.6557145 8.59718694,61.4496033 C8.8931908,61.2438525 9.09603516,60.9727009 9.20898878,60.6368694 C9.28471492,60.4076968 9.32339518,59.9207051 9.32339518,59.1766148 L9.32339518,56.3971765 L10.0995427,56.3971765 L10.0995427,59.3185865 C10.0995427,60.1390676 10.0043857,60.7572211 9.8147979,61.1730468 C9.62466536,61.5886924 9.33774138,61.9147949 8.95584192,62.1497328 C8.57412406,62.3848509 8.09652274,62.5025001 7.52122199,62.5025001 C6.94555804,62.5025001 6.46359838,62.3848509 6.07951976,62.1497328 C5.69344356,61.9147949 5.40561158,61.5865304 5.21584224,61.1649393 C5.02625449,60.7435284 4.93073423,60.1098806 4.93073423,59.264176 L4.93073423,56.3971765" id="Fill-18"></path>
                    <path d="M14.6387528,56.9834403 C14.2069141,56.9834403 13.8077628,57.0872166 13.4376672,57.2971113 C13.069206,57.5071862 12.7791948,57.7970751 12.5696314,58.1664177 C12.3602495,58.5373818 12.2543782,58.9378934 12.2543782,59.3679523 C12.2543782,60.020878 12.4713871,60.5606587 12.9059499,60.9869342 C13.3410574,61.4137501 13.9029199,61.627068 14.5951694,61.627068 C15.2939565,61.627068 15.855819,61.4160923 16.2796675,60.9928797 C16.7051503,60.5696671 16.9188905,60.0134911 16.9188905,59.3243519 C16.9188905,58.8757357 16.8210095,58.4754043 16.6250658,58.1231776 C16.4302118,57.7709509 16.154002,57.4933133 15.7951654,57.288103 C15.4363289,57.0846943 15.0507975,56.9834403 14.6387528,56.9834403 L14.6387528,56.9834403 Z M16.8802103,56.3971765 L17.6407404,56.3971765 L17.6407404,61.139896 C17.6407404,61.9755112 17.5677382,62.5862778 17.4237315,62.9730966 C17.2239743,63.5209848 16.8791207,63.9420354 16.3866284,64.2366087 C15.8939545,64.5324431 15.3021283,64.68 14.6113316,64.68 C14.1043115,64.68 13.6488651,64.6079331 13.2459003,64.4630788 C12.8425723,64.3182244 12.5133362,64.1252654 12.2609157,63.8816794 C12.0068608,63.6380935 11.7731449,63.2822634 11.5599495,62.8143694 L12.3849468,62.8143694 C12.6095828,63.208575 12.899594,63.500626 13.2540722,63.6892609 C13.6101848,63.8789769 14.0511034,63.973925 14.5759201,63.973925 C15.0936545,63.973925 15.5320307,63.8768149 15.8875986,63.6829551 C16.2453455,63.4878341 16.4994004,63.2438878 16.6524871,62.9491344 C16.8044841,62.6543809 16.8802103,62.1796406 16.8802103,61.523652 L16.8802103,61.2171877 C16.5934679,61.581846 16.244256,61.8614654 15.8323929,62.0565864 C15.4192587,62.2526082 14.9803376,62.3495382 14.5158113,62.3495382 C13.9726533,62.3495382 13.4612749,62.2131516 12.9838552,61.9420001 C12.5053459,61.6701279 12.1352502,61.3040283 11.8746579,60.8447823 C11.6146103,60.3853561 11.4847681,59.8801675 11.4847681,59.3297569 C11.4847681,58.7791661 11.6195135,58.2649691 11.8913649,57.7896882 C12.1626715,57.3136867 12.539123,56.9374977 13.0183587,56.6598602 C13.4988656,56.3833036 14.0064305,56.2436741 14.5383294,56.2436741 C14.9803376,56.2436741 15.3918375,56.3359197 15.7748265,56.5196901 C16.156726,56.7047218 16.525732,57.0077629 16.8802103,57.431516 L16.8802103,56.3971765 L16.8802103,56.3971765 Z" id="Fill-19"></path>
                    <path d="M22.1203866,56.9834403 C21.6885478,56.9834403 21.2888518,57.0872166 20.9194826,57.2971113 C20.5508397,57.5071862 20.2608286,57.7970751 20.0509019,58.1664177 C19.8413384,58.5373818 19.7361935,58.9378934 19.7361935,59.3679523 C19.7361935,60.020878 19.9530209,60.5606587 20.3870388,60.9869342 C20.8226911,61.4137501 21.3845537,61.627068 22.07644,61.627068 C22.775227,61.627068 23.3370895,61.4160923 23.7607564,60.9928797 C24.1867841,60.5696671 24.4005243,60.0134911 24.4005243,59.3243519 C24.4005243,58.8757357 24.30228,58.4754043 24.1066996,58.1231776 C23.9111191,57.7709509 23.635091,57.4933133 23.2762544,57.288103 C22.9181442,57.0846943 22.5318864,56.9834403 22.1203866,56.9834403 L22.1203866,56.9834403 Z M24.361844,56.3971765 L25.1218294,56.3971765 L25.1218294,61.139896 C25.1218294,61.9755112 25.0488272,62.5862778 24.9053652,62.9730966 C24.7050632,63.5209848 24.3607544,63.9420354 23.8682621,64.2366087 C23.3757698,64.5324431 22.7843069,64.68 22.0929653,64.68 C21.5854004,64.68 21.129954,64.6079331 20.7271709,64.4630788 C20.3238429,64.3182244 19.9949699,64.1252654 19.7420046,63.8816794 C19.4879498,63.6380935 19.2542339,63.2822634 19.0410384,62.8143694 L19.8660357,62.8143694 C20.0906718,63.208575 20.3812277,63.500626 20.7357059,63.6892609 C21.0923633,63.8789769 21.5321924,63.973925 22.0570091,63.973925 C22.5752882,63.973925 23.0131197,63.8768149 23.3697771,63.6829551 C23.7264345,63.4878341 23.9810341,63.2438878 24.133576,62.9491344 C24.2861179,62.6543809 24.361844,62.1796406 24.361844,61.523652 L24.361844,61.2171877 C24.0751016,61.581846 23.7253449,61.8614654 23.3138451,62.0565864 C22.9003477,62.2526082 22.4614266,62.3495382 21.9979899,62.3495382 C21.4544687,62.3495382 20.9430902,62.2131516 20.4654889,61.9420001 C19.9864348,61.6701279 19.616884,61.3040283 19.3562916,60.8447823 C19.0958809,60.3853561 18.9653123,59.8801675 18.9653123,59.3297569 C18.9653123,58.7791661 19.1006024,58.2649691 19.3724538,57.7896882 C19.6443052,57.3136867 20.0202119,56.9374977 20.4999924,56.6598602 C20.9801361,56.3833036 21.4871562,56.2436741 22.0194184,56.2436741 C22.4614266,56.2436741 22.8734712,56.3359197 23.2564603,56.5196901 C23.6383597,56.7047218 24.0073658,57.0077629 24.361844,57.431516 L24.361844,56.3971765 L24.361844,56.3971765 Z" id="Fill-20"></path>
                    <path d="M29.5978436,56.9834403 C29.1750847,56.9834403 28.7855581,57.0872166 28.4269031,57.2965708 C28.0686114,57.5066457 27.7840481,57.8008586 27.5723055,58.1797501 C27.3616524,58.5581011 27.2559627,58.9587928 27.2559627,59.3812847 C27.2559627,59.8007138 27.362742,60.2014055 27.576119,60.5837201 C27.7885881,60.9662149 28.0760569,61.2634907 28.435983,61.4773491 C28.7953644,61.6904868 29.1808958,61.7964251 29.5929404,61.7964251 C30.0087986,61.7964251 30.4028651,61.6910273 30.7751399,61.4798714 C31.1474147,61.2688957 31.4336123,60.9827903 31.6346407,60.6219155 C31.8360323,60.2617614 31.9359109,59.8556647 31.9359109,59.4038056 C31.9359109,58.7152068 31.7109116,58.138672 31.2596419,57.6760028 C30.8094618,57.2140543 30.2568607,56.9834403 29.5978436,56.9834403 L29.5978436,56.9834403 Z M32.6357875,56.3971765 L32.6357875,62.3495382 L31.8865163,62.3495382 L31.8865163,61.3270897 C31.5674496,61.7171515 31.2102474,62.0106438 30.8149097,62.2079268 C30.4179377,62.4044891 29.9850093,62.5025001 29.5144903,62.5025001 C28.6776892,62.5025001 27.9643744,62.1972969 27.3723667,61.5865304 C26.7805406,60.9752233 26.4839919,60.2318537 26.4839919,59.3567819 C26.4839919,58.4999071 26.7832645,57.7666269 27.3799938,57.1571214 C27.9772678,56.5479764 28.6963938,56.2436741 29.5361004,56.2436741 C30.0209656,56.2436741 30.4598867,56.3476305 30.8519556,56.5559037 C31.2451141,56.7638166 31.5905125,57.0760462 31.8865163,57.4911513 L31.8865163,56.3971765 L32.6357875,56.3971765 L32.6357875,56.3971765 Z" id="Fill-21"></path>
                    <path d="M37.1971525,56.9834403 C36.7653137,56.9834403 36.3661625,57.0872166 35.9960669,57.2971113 C35.6281504,57.5071862 35.3375945,57.7970751 35.128031,58.1664177 C34.9186491,58.5373818 34.8133226,58.9378934 34.8133226,59.3679523 C34.8133226,60.020878 35.0297868,60.5606587 35.4643495,60.9869342 C35.899457,61.4137501 36.461138,61.627068 37.1541139,61.627068 C37.8523561,61.627068 38.4142186,61.4160923 38.8380671,60.9928797 C39.2639131,60.5696671 39.477835,60.0134911 39.477835,59.3243519 C39.477835,58.8757357 39.3794091,58.4754043 39.1834655,58.1231776 C38.9884298,57.7709509 38.7116753,57.4933133 38.3535651,57.288103 C37.9947285,57.0846943 37.6090155,56.9834403 37.1971525,56.9834403 L37.1971525,56.9834403 Z M39.4391547,56.3971765 L40.1996849,56.3971765 L40.1996849,61.139896 C40.1996849,61.9755112 40.1259563,62.5862778 39.9821311,62.9730966 C39.7821923,63.5209848 39.4375203,63.9420354 38.9448464,64.2366087 C38.4523541,64.5324431 37.8608912,64.68 37.1697312,64.68 C36.6627111,64.68 36.2070831,64.6079331 35.8042999,64.4630788 C35.400972,64.3182244 35.072099,64.1252654 34.8191337,63.8816794 C34.5645341,63.6380935 34.3315445,63.2822634 34.1181675,62.8143694 L34.9433464,62.8143694 C35.1678008,63.208575 35.4572672,63.500626 35.812835,63.6892609 C36.1689476,63.8789769 36.6095031,63.973925 37.1335933,63.973925 C37.6520541,63.973925 38.0902488,63.8768149 38.4458166,63.6829551 C38.8035636,63.4878341 39.0583448,63.2438878 39.2107051,62.9491344 C39.363247,62.6543809 39.4391547,62.1796406 39.4391547,61.523652 L39.4391547,61.2171877 C39.1516859,61.581846 38.802474,61.8614654 38.390611,62.0565864 C37.9774767,62.2526082 37.5380109,62.3495382 37.0745742,62.3495382 C36.531053,62.3495382 36.0196745,62.2131516 35.5422548,61.9420001 C35.0635639,61.6701279 34.6934683,61.3040283 34.4336023,60.8447823 C34.17301,60.3853561 34.0424414,59.8801675 34.0424414,59.3297569 C34.0424414,58.7791661 34.1779131,58.2649691 34.4497645,57.7896882 C34.7208895,57.3136867 35.0975226,56.9374977 35.5765767,56.6598602 C36.0572652,56.3833036 36.5648301,56.2436741 37.0965475,56.2436741 C37.5380109,56.2436741 37.9500555,56.3359197 38.3330446,56.5196901 C38.7154888,56.7047218 39.0841317,57.0077629 39.4391547,57.431516 L39.4391547,56.3971765 L39.4391547,56.3971765 Z" id="Fill-22"></path>
                    <path d="M46.8009341,58.7717793 C46.6994211,58.3629801 46.5517824,58.0368775 46.3578363,57.7922106 C46.1633454,57.5482643 45.908201,57.3509813 45.5891343,57.2012624 C45.2689779,57.052084 44.9342938,56.9774948 44.5825395,56.9774948 C44.0025173,56.9774948 43.5051218,57.1650488 43.0887188,57.5406973 C42.7832719,57.8147315 42.5533695,58.2244315 42.3970141,58.7717793 L46.8009341,58.7717793 L46.8009341,58.7717793 Z M46.8009341,60.3747262 L47.4412468,60.7136206 C47.2316833,61.1292662 46.9883427,61.4650977 46.7128593,61.720935 C46.4371944,61.9755112 46.1284787,62.1695512 45.7841699,62.3026947 C45.4404059,62.4360184 45.0505162,62.5025001 44.6154087,62.5025001 C43.651671,62.5025001 42.8985863,62.1845051 42.3550651,61.5481548 C41.8115439,60.911264 41.5404189,60.1923971 41.5404189,59.3893922 C41.5404189,58.6343118 41.7695949,57.9617479 42.2299445,57.3713402 C42.8132355,56.6193226 43.5942862,56.2436741 44.5718253,56.2436741 C45.5789648,56.2436741 46.3830784,56.6288714 46.9845291,57.3980049 C47.4121912,57.9415691 47.6297449,58.6204389 47.6371904,59.4329926 L42.3218328,59.4329926 C42.3363606,60.1248344 42.5548223,60.6912799 42.9792156,61.1335902 C43.4036088,61.5759005 43.9267911,61.7964251 44.5509416,61.7964251 C44.850759,61.7964251 45.1438573,61.7441766 45.4275125,61.6387788 C45.7133469,61.5332009 45.9550531,61.3935714 46.1537208,61.2188092 C46.3529332,61.0451281 46.5688526,60.7626261 46.8009341,60.3747262 L46.8009341,60.3747262 Z" id="Fill-23"></path>
                    <polyline id="Fill-24" points="52.256485 54.3018328 56.2587114 54.3018328 56.2587114 55.0904243 53.055877 55.0904243 53.055877 57.6122236 56.2587114 57.6122236 56.2587114 58.3997342 53.055877 58.3997342 53.055877 62.3495382 52.256485 62.3495382 52.256485 54.3018328"></polyline>
                    <path d="M57.2362505,56.3971765 L58.0129429,56.3971765 L58.0129429,57.2668432 C58.24339,56.9247058 58.488365,56.6679677 58.745507,56.4989709 C59.0028306,56.3288931 59.2703237,56.2436741 59.5487126,56.2436741 C59.7580945,56.2436741 59.9825489,56.3119574 60.2222576,56.4461819 L59.8247407,57.0920811 C59.6662061,57.0227168 59.5320056,56.9875842 59.4239551,56.9875842 C59.1699003,56.9875842 58.9254701,57.0931621 58.691391,57.3025163 C58.4554959,57.5125912 58.2773488,57.8381532 58.1531361,58.2793825 C58.0596134,58.6182769 58.0129429,59.3036326 58.0129429,60.3363506 L58.0129429,62.3495382 L57.2362505,62.3495382 L57.2362505,56.3971765" id="Fill-25"></path>
                    <path d="M65.7974812,58.7717793 C65.696513,58.3629801 65.5483295,58.0368775 65.3549282,57.7922106 C65.1604373,57.5482643 64.9049297,57.3509813 64.5858629,57.2012624 C64.2657066,57.052084 63.9310225,56.9774948 63.579813,56.9774948 C62.9996091,56.9774948 62.5022137,57.1650488 62.0854475,57.5406973 C61.779819,57.8147315 61.5504614,58.2244315 61.3942876,58.7717793 L65.7974812,58.7717793 L65.7974812,58.7717793 Z M65.7974812,60.3747262 L66.4383386,60.7136206 C66.2289567,61.1292662 65.9854345,61.4650977 65.7099512,61.720935 C65.4344679,61.9755112 65.1255706,62.1695512 64.7812618,62.3026947 C64.436953,62.4360184 64.0476081,62.5025001 63.6119558,62.5025001 C62.6483996,62.5025001 61.895315,62.1845051 61.3517938,61.5481548 C60.8086358,60.911264 60.5375108,60.1923971 60.5375108,59.3893922 C60.5375108,58.6343118 60.7668683,57.9617479 61.2266731,57.3713402 C61.8099642,56.6193226 62.591378,56.2436741 63.5690987,56.2436741 C64.5760567,56.2436741 65.3796254,56.6288714 65.9812578,57.3980049 C66.409283,57.9415691 66.6268368,58.6204389 66.6344639,59.4329926 L61.3185614,59.4329926 C61.3334524,60.1248344 61.5520958,60.6912799 61.976489,61.1335902 C62.4001559,61.5759005 62.9235198,61.7964251 63.5480334,61.7964251 C63.8476693,61.7964251 64.140586,61.7441766 64.4246044,61.6387788 C64.7104388,61.5332009 64.952145,61.3935714 65.1502678,61.2188092 C65.3502066,61.0451281 65.5659444,60.7626261 65.7974812,60.3747262 L65.7974812,60.3747262 Z" id="Fill-26"></path>
                    <path d="M73.0236073,58.7717793 C72.9220943,58.3629801 72.774274,58.0368775 72.5808727,57.7922106 C72.3863818,57.5482643 72.1308742,57.3509813 71.8118074,57.2012624 C71.4916511,57.052084 71.156967,56.9774948 70.8057575,56.9774948 C70.2255536,56.9774948 69.7276134,57.1650488 69.3108472,57.5406973 C69.0057635,57.8147315 68.7764059,58.2244315 68.6207769,58.7717793 L73.0236073,58.7717793 L73.0236073,58.7717793 Z M73.0236073,60.3747262 L73.6642831,60.7136206 C73.4549013,61.1292662 73.2115607,61.4650977 72.9360773,61.720935 C72.6604124,61.9755112 72.3515151,62.1695512 72.0068431,62.3026947 C71.6628975,62.4360184 71.2735526,62.5025001 70.8384451,62.5025001 C69.8743441,62.5025001 69.1212595,62.1845051 68.5777383,61.5481548 C68.0347619,60.911264 67.7623657,60.1923971 67.7623657,59.3893922 C67.7623657,58.6343118 67.9922681,57.9617479 68.4526176,57.3713402 C69.0353639,56.6193226 69.8173225,56.2436741 70.7950433,56.2436741 C71.8021828,56.2436741 72.6055699,56.6288714 73.2072023,57.3980049 C73.6352275,57.9415691 73.8529629,58.6204389 73.8598636,59.4329926 L68.544506,59.4329926 C68.5593969,60.1248344 68.7774955,60.6912799 69.2024335,61.1335902 C69.626282,61.5759005 70.1494643,61.7964251 70.7736148,61.7964251 C71.0737954,61.7964251 71.3665305,61.7441766 71.6507305,61.6387788 C71.9358385,61.5332009 72.1775447,61.3935714 72.3763939,61.2188092 C72.5761512,61.0451281 72.7920705,60.7626261 73.0236073,60.3747262 L73.0236073,60.3747262 Z" id="Fill-27"></path>
                    <path d="M78.1348494,56.9834403 C77.7120905,56.9834403 77.3205664,57.0872166 76.963909,57.2965708 C76.6050724,57.5066457 76.3208724,57.8008586 76.1087665,58.1797501 C75.8977503,58.5581011 75.7924238,58.9587928 75.7924238,59.3812847 C75.7924238,59.8007138 75.8993847,60.2014055 76.1114905,60.5837201 C76.3246859,60.9662149 76.6110651,61.2634907 76.9713545,61.4773491 C77.3312806,61.6904868 77.7169936,61.7964251 78.1299463,61.7964251 C78.5452597,61.7964251 78.9400525,61.6910273 79.3123273,61.4798714 C79.6838757,61.2688957 79.9707997,60.9827903 80.1716465,60.6219155 C80.3714037,60.2617614 80.4718271,59.8556647 80.4718271,59.4038056 C80.4718271,58.7152068 80.2473726,58.138672 79.7968293,57.6760028 C79.3466492,57.2140543 78.7922322,56.9834403 78.1348494,56.9834403 L78.1348494,56.9834403 Z M81.1727933,54.0993249 L81.1727933,62.3495382 L80.4235222,62.3495382 L80.4235222,61.3270897 C80.1044554,61.7171515 79.7472532,62.0106438 79.3504628,62.2079268 C78.9551251,62.4044891 78.5220152,62.5025001 78.0505882,62.5025001 C77.2146951,62.5025001 76.501017,62.1972969 75.9090093,61.5865304 C75.3175464,60.9752233 75.0211793,60.2318537 75.0211793,59.3567819 C75.0211793,58.4999071 75.3202704,57.7666269 75.9169996,57.1571214 C76.5142737,56.5479764 77.2330364,56.2436741 78.0720167,56.2436741 C78.5576083,56.2436741 78.995803,56.3476305 79.3889615,56.5559037 C79.78212,56.7638166 80.1269735,57.0760462 80.4235222,57.4911513 L80.4235222,54.0993249 L81.1727933,54.0993249 L81.1727933,54.0993249 Z" id="Fill-28"></path>
                    <path d="M85.6883957,56.9935297 C85.0551654,56.9935297 84.5116442,57.2284676 84.0581953,57.6990642 C83.6038385,58.1702012 83.3772049,58.7386285 83.3772049,59.4057874 C83.3772049,59.8360265 83.4814418,60.2372587 83.6882813,60.6096642 C83.895484,60.9811688 84.1747809,61.2688957 84.5267168,61.4714036 C84.8790159,61.6739114 85.2663632,61.7751653 85.6883957,61.7751653 C86.1086123,61.7751653 86.4952332,61.6739114 86.8482587,61.4714036 C87.2005578,61.2688957 87.4803995,60.9811688 87.6877838,60.6096642 C87.8933521,60.2372587 87.997589,59.8360265 87.997589,59.4057874 C87.997589,58.7386285 87.7698658,58.1702012 87.3144194,57.6990642 C86.8578834,57.2284676 86.315815,56.9935297 85.6883957,56.9935297 L85.6883957,56.9935297 Z M85.6900301,56.2436741 C86.5994702,56.2436741 87.3536444,56.5760825 87.9530976,57.239638 C88.4966188,57.8449996 88.7682886,58.5617044 88.7682886,59.3893922 C88.7682886,60.2217643 88.4815463,60.9481982 87.9062455,61.5694145 C87.3314895,62.1918919 86.5940223,62.5025001 85.6900301,62.5025001 C84.7840404,62.5025001 84.0433043,62.1918919 83.4690932,61.5694145 C82.8932476,60.9481982 82.6065052,60.2217643 82.6065052,59.3893922 C82.6065052,58.5654879 82.8787198,57.8504046 83.4216962,57.245043 C84.0207863,56.577704 84.7764133,56.2436741 85.6900301,56.2436741 L85.6900301,56.2436741 Z" id="Fill-29"></path>
                    <path d="M90.169313,56.3971765 L90.9292984,56.3971765 L90.9292984,57.4257506 C91.1935227,57.0461385 91.4651925,56.7690414 91.7441262,56.5937388 C92.1287496,56.3604224 92.5331672,56.2436741 92.9573788,56.2436741 C93.2426685,56.2436741 93.5145199,56.3002466 93.7723882,56.4137519 C94.0289855,56.527077 94.2401833,56.6775165 94.4023498,56.8650705 C94.5650612,57.0526245 94.706344,57.3217942 94.8272879,57.6718589 C95.0797084,57.2050459 95.3949615,56.8506572 95.7746818,56.6081522 C96.1538573,56.3661877 96.5620884,56.2436741 96.9988303,56.2436741 C97.4070614,56.2436741 97.7669876,56.3476305 98.0795168,56.5559037 C98.392046,56.7638166 98.6241276,57.0537055 98.7750351,57.4257506 C98.9264873,57.7976156 99.0023951,58.3555932 99.0023951,59.1000438 L99.0023951,62.3495382 L98.2260659,62.3495382 L98.2260659,59.1000438 C98.2260659,58.4615315 98.1810298,58.0224642 98.090231,57.7837427 C98.0016115,57.5455618 97.8458009,57.3531433 97.6277023,57.2072079 C97.4096038,57.0610924 97.149193,56.9875842 96.8462884,56.9875842 C96.4778272,56.9875842 96.1420535,57.097306 95.836425,57.3163892 C95.5329756,57.5354724 95.3096107,57.8275233 95.1686911,58.1920014 C95.0281347,58.5564796 94.9582197,59.165985 94.9582197,60.0192565 L94.9582197,62.3495382 L94.1976895,62.3495382 L94.1976895,59.3025516 C94.1976895,58.5840451 94.1530165,58.0959724 94.0649418,57.8392342 C93.9752326,57.5812349 93.8206932,57.375484 93.6004155,57.2205403 C93.3790481,57.0654164 93.1180926,56.9875842 92.8135537,56.9875842 C92.4627074,56.9875842 92.134016,57.0947836 91.8267531,57.3084618 C91.5222141,57.5214194 91.2961253,57.8082455 91.1488497,58.1702012 C91.0017558,58.5308958 90.9292984,59.0829279 90.9292984,59.827919 L90.9292984,62.3495382 L90.169313,62.3495382 L90.169313,56.3971765" id="Fill-30"></path>
                </g>
            </g>
        </g>
    </g>
</svg>