<?xml version="1.0" encoding="UTF-8" standalone="no"?>
<svg width="569px" height="89px" viewBox="0 0 569 89" version="1.1" xmlns="http://www.w3.org/2000/svg" xmlns:xlink="http://www.w3.org/1999/xlink">
    <!-- Generator: Sketch 3.6.1 (26313) - http://www.bohemiancoding.com/sketch -->
    <title>BA-Speedmarque-logo-white-01</title>
    <desc>Created with Sketch.</desc>
    <defs></defs>
    <g id="Page-1" stroke="none" stroke-width="1" fill="none" fill-rule="evenodd">
        <g id="BA-Speedmarque-logo-white-01" fill="#FFFFFF">
            <path d="M0.875,87.742 C2.121,87.105 2.678,85.594 2.678,84.302 L2.678,52.591 C2.678,51.248 2.121,49.78 0.875,49.108 L15.989,49.108 C22.729,49.108 29.306,51.865 29.306,59.519 C29.306,63.576 25.769,66.776 21.952,67.496 C27.446,67.445 32.755,70.802 32.755,76.865 C32.755,85.531 23.672,87.742 17.275,87.742 L0.875,87.742 L0.875,87.742 Z M13.112,52.436 C12.412,52.436 11.923,52.436 10.635,52.59 L10.635,66.116 L12.161,66.116 C16.795,66.116 21.272,64.682 21.272,59.316 C21.272,53.991 17.695,52.436 13.112,52.436 L13.112,52.436 Z M14.075,69.594 C12.972,69.594 11.981,69.594 10.635,69.694 L10.635,83.974 C12.312,84.303 14.124,84.408 15.792,84.408 C19.669,84.408 23.612,82.682 23.612,76.757 C23.612,70.911 18.949,69.594 14.075,69.594 L14.075,69.594 Z M47.706,52.436 C47.015,52.436 46.409,52.547 45.723,52.642 L45.723,66.005 C46.36,66.048 46.929,66.116 47.557,66.116 C51.903,66.116 55.12,63.713 55.12,58.987 C55.121,54.156 51.958,52.436 47.706,52.436 L47.706,52.436 Z M67.187,87.971 C65.704,87.971 64.07,88.025 62.659,87.605 C60.027,86.828 56.396,80.902 54.95,78.576 C52.71,74.796 50.756,69.593 45.724,69.536 L45.724,84.302 C45.724,85.594 46.31,87.159 47.558,87.742 L35.955,87.742 C37.172,87.105 37.755,85.656 37.755,84.302 L37.755,52.591 C37.755,51.248 37.172,49.78 35.955,49.108 L49.924,49.108 C56.001,49.108 63.607,51.439 63.607,58.742 C63.607,64.868 58.538,68.008 52.887,68.008 C60.93,68.054 65.653,86.92 74.53,86.977 C72.152,87.682 69.669,87.971 67.187,87.971 L67.187,87.971 Z M75.112,87.742 C76.069,87.305 77.075,86.036 77.075,84.302 L77.075,52.591 C77.075,50.831 76.069,49.585 75.112,49.108 L87.004,49.108 C85.981,49.585 85.052,50.831 85.052,52.591 L85.052,84.303 C85.052,86.037 85.981,87.306 87.004,87.743 L75.112,87.743 L75.112,87.742 Z M100.915,87.742 C102.186,87.159 102.806,85.656 102.806,84.302 L102.806,53.539 L94.272,53.539 C92.304,53.539 89.955,53.779 88.263,54.785 L90.917,49.108 L119.237,49.108 C121.531,49.108 123.877,49.057 126.103,48.582 C125.023,51.491 121.811,53.645 119.963,53.645 C117.717,53.594 113.994,53.445 110.789,53.445 L110.789,84.302 C110.789,85.656 111.458,87.159 112.712,87.742 L100.915,87.742 L100.915,87.742 Z M127.519,87.742 C128.468,87.305 129.468,86.036 129.468,84.302 L129.468,52.591 C129.468,50.831 128.468,49.585 127.519,49.108 L139.405,49.108 C138.397,49.585 137.431,50.831 137.431,52.591 L137.431,84.303 C137.431,86.037 138.397,87.306 139.405,87.743 L127.519,87.743 L127.519,87.742 Z M162.556,79.002 C162.556,71.645 145.227,69.982 145.227,58.236 C145.227,50.965 152.141,48.582 158.224,48.582 C160.938,48.582 164.867,48.959 167.347,50.102 L167.778,57.325 C166.252,54.134 162.432,51.822 158.889,51.822 C156.083,51.822 153.146,53.21 153.146,56.416 C153.146,64.048 170.772,65.913 170.772,77.039 C170.772,85.113 163.715,88.456 156.592,88.456 C152.869,88.456 147.803,87.742 144.661,85.593 C144.47,84.301 144.384,82.95 144.384,81.63 C144.384,80.053 144.518,78.47 144.753,76.913 C146.719,81.382 150.77,84.876 155.839,84.876 C159.693,84.877 162.556,83.197 162.556,79.002 L162.556,79.002 Z M199.691,87.742 C200.531,87.365 201.425,86.036 201.425,84.302 L201.425,69.925 C199.359,69.694 196.471,69.593 193.228,69.593 C189.939,69.593 187.025,69.693 184.908,69.925 L184.908,84.302 C184.908,86.036 185.782,87.305 186.634,87.742 L175.185,87.742 C176.034,87.365 176.936,86.036 176.936,84.302 L176.936,52.591 C176.936,50.831 176.033,49.534 175.185,49.108 L186.634,49.108 C185.782,49.534 184.908,50.831 184.908,52.591 L184.908,65.58 C187.025,65.806 189.888,65.914 193.228,65.914 C196.471,65.914 199.359,65.774 201.425,65.58 L201.425,52.591 C201.425,50.831 200.531,49.534 199.691,49.108 L211.125,49.108 C210.265,49.534 209.417,50.831 209.417,52.591 L209.417,84.303 C209.417,86.037 210.266,87.306 211.125,87.743 L199.691,87.743 L199.691,87.742 Z" id="Shape"></path>
            <path d="M253.557,87.743 C253.926,87.363 254.263,87.083 254.263,86.397 C254.263,86.166 254.172,85.783 253.892,85.06 C253.892,85.06 250.718,76.426 250.349,75.423 C247.966,75.132 245.48,75.132 243.049,75.132 C240.735,75.132 238.395,75.186 236.109,75.423 C235.783,76.289 232.383,84.877 232.383,84.877 C231.926,86.037 231.769,86.434 231.769,86.686 C231.769,87.26 232.26,87.54 232.678,87.743 L224.901,87.743 C226.052,87.16 227.044,85.963 227.533,84.769 L240.319,51.78 C240.373,51.643 240.396,51.491 240.396,51.306 C240.396,50.397 239.79,49.535 238.979,49.106 L249.005,49.106 L262.005,84.738 C262.534,86.167 263.671,87.212 264.622,87.744 L253.557,87.744 L253.557,87.743 Z M243.462,56.457 L237.605,71.503 C239.348,71.694 241.162,71.74 242.931,71.74 C244.954,71.74 246.957,71.74 248.925,71.503 L243.462,56.457 L243.462,56.457 Z M266.597,87.743 C267.557,87.303 268.548,86.037 268.548,84.3 L268.548,52.592 C268.548,50.832 267.557,49.586 266.597,49.106 L278.48,49.106 C277.469,49.586 276.529,50.832 276.529,52.592 L276.529,84.3 C276.529,86.037 277.469,87.303 278.48,87.743 L266.597,87.743 L266.597,87.743 Z M296.543,52.435 C295.9,52.435 295.286,52.546 294.62,52.644 L294.62,66.004 C295.234,66.047 295.803,66.115 296.406,66.115 C300.763,66.115 303.975,63.712 303.975,58.986 C303.974,54.157 300.803,52.435 296.543,52.435 L296.543,52.435 Z M316.997,87.969 C315.514,87.969 313.917,88.026 312.468,87.606 C309.834,86.829 306.208,80.903 304.765,78.577 C302.531,74.797 299.619,69.537 294.619,69.537 L294.619,84.3 C294.619,85.594 295.176,87.16 296.405,87.743 L284.813,87.743 C286.062,87.103 286.639,85.654 286.639,84.3 L286.639,52.592 C286.639,51.249 286.062,49.781 284.813,49.106 L298.813,49.106 C304.876,49.106 312.467,51.44 312.467,58.74 C312.467,64.869 306.924,68.009 302.735,68.009 C311.069,68.489 316.098,86.978 324.37,86.978 C321.975,87.681 319.494,87.969 316.997,87.969 L316.997,87.969 Z M365.195,52.877 L353.455,87.743 C352.492,87.743 351.538,87.409 350.998,87.032 C349.841,85.912 348.015,81.243 347.358,79.52 L342.049,66.114 L334.406,87.743 L330.769,87.743 L317.629,52.794 C317.063,51.305 316.1,49.877 314.666,49.105 L326.086,49.105 C325.606,49.479 325.275,49.902 325.275,50.717 C325.275,51.109 325.469,51.643 325.607,52.06 L334.161,75.186 L343.273,49.106 L353.31,74.246 L360.91,51.492 C361.096,50.875 361.21,50.646 361.21,50.255 C361.21,49.781 361.001,49.481 360.524,49.106 L368.09,49.106 C366.692,49.843 365.681,51.44 365.195,52.877 L365.195,52.877 Z M379.235,56.457 L373.375,71.503 C375.141,71.694 376.952,71.74 378.715,71.74 C380.718,71.74 382.744,71.74 384.703,71.503 L379.235,56.457 L379.235,56.457 Z M389.315,87.743 C389.715,87.363 390.018,87.083 390.018,86.397 C390.018,86.166 389.901,85.783 389.669,85.06 C389.669,85.06 386.517,76.426 386.132,75.423 C383.729,75.132 381.249,75.132 378.812,75.132 C376.532,75.132 374.183,75.186 371.886,75.423 C371.552,76.289 368.177,84.877 368.177,84.877 C367.689,86.037 367.557,86.434 367.557,86.686 C367.557,87.26 368.028,87.54 368.44,87.743 L360.666,87.743 C361.814,87.16 362.806,85.963 363.286,84.769 L376.109,51.78 C376.149,51.643 376.186,51.491 376.186,51.306 C376.186,50.397 375.58,49.535 374.746,49.106 L384.777,49.106 L397.774,84.738 C398.311,86.167 399.46,87.212 400.406,87.744 L389.315,87.744 L389.315,87.743 Z M424.227,53.166 L415.078,69.212 L415.078,84.3 C415.078,85.532 415.581,87.16 416.801,87.743 L405.418,87.743 C406.581,87.103 407.115,85.489 407.115,84.3 L407.115,69.16 L399.161,56.417 C398.447,55.223 395.13,49.671 391.087,49.671 C392.187,49.254 395.53,48.614 397.776,48.614 C401.516,48.614 403.373,48.957 405.665,52.546 L413.028,64.215 C413.645,63.069 419.471,52.935 419.471,52.935 C420.177,51.698 420.657,50.832 420.657,50.398 C420.657,49.844 420.42,49.481 419.857,49.106 L428.057,49.106 C426.441,49.877 425.11,51.643 424.227,53.166 L424.227,53.166 Z M445.65,79.003 C445.65,71.643 428.316,69.983 428.316,58.237 C428.316,50.965 435.213,48.583 441.302,48.583 C444.025,48.583 447.925,48.957 450.422,50.1 L450.85,57.323 C449.307,54.134 445.504,51.823 441.959,51.823 C439.15,51.823 436.23,53.209 436.23,56.417 C436.23,64.049 453.859,65.911 453.859,77.04 C453.859,85.111 446.85,88.457 439.682,88.457 C435.953,88.457 430.876,87.743 427.733,85.594 C427.524,84.3 427.427,82.948 427.427,81.628 C427.427,80.051 427.579,78.468 427.816,76.914 C429.776,81.383 433.847,84.877 438.913,84.877 C442.776,84.878 445.65,83.195 445.65,79.003 L445.65,79.003 Z" id="Shape"></path>
            <g id="Group" transform="translate(487.000000, 21.000000)">
                <g id="SVGID_1_-link">
                    <path d="M65.298,1.065 C58.801,7.519 44.727,13.062 37.801,15.659 C28.341,19.21 24.147,20.468 18.849,22.19 C12.86,24.133 0.875,27.764 0.875,27.764 C25.701,35.175 43.198,37.41 43.198,37.41 C43.198,37.41 51.347,34.893 64.261,27.987 C71.253,24.433 74.69,22.041 77.153,19.753 C78.062,18.933 80.402,16.496 80.984,13.37 C81.024,13.144 81.133,12.547 81.133,11.959 C81.133,11.959 81.133,11.545 81.099,11.185 C81.087,10.774 81.013,10.497 81.013,10.497 C81.013,10.497 80.873,9.757 80.693,9.237 C80.502,8.717 79.705,7.117 78.407,6.074 C77.541,5.371 76.047,3.62 70.636,1.717 C68.79,1.077 65.813,0.488 65.813,0.488 L65.298,1.065 L65.298,1.065 Z" id="SVGID_1_"></path>
                </g>
            </g>
            <path d="M568.134,32.792 C568.134,32.792 568.097,32.101 567.931,31.515 C567.8,30.995 567.565,30.495 567.217,29.972 C566.794,29.349 566.223,28.618 565.377,27.809 C564.74,27.206 564.04,26.675 563.2,26.112 C559.814,23.892 555.446,22.643 551.571,22.115 C545.58,21.318 538.702,21.458 538.051,21.435 C535.84,21.404 521.551,21.521 517.877,21.586 C501.565,21.923 481.594,21.966 476.362,21.966 C422.362,22.215 398.85,21.052 372.69,15.806 C350.436,11.386 338.084,7.186 338.084,7.186 C357.716,6.506 472.259,1.755 493.157,1.197 C506.84,0.814 516.551,0.728 524.323,1.18 C528.312,1.403 532.017,1.74 536.675,2.532 C540.849,3.246 544.644,4.458 546.855,5.281 C551.509,7.004 555.432,9.495 557.367,12.047 C557.367,12.047 557.941,12.636 558.721,13.681 C559.592,14.892 560.604,16.387 560.95,16.941 C563.784,21.233 565.127,23.927 565.593,24.867 C566.099,25.856 566.541,26.881 566.979,27.884 C567.402,28.878 567.579,29.484 567.716,29.904 C568.013,30.958 568.087,31.921 568.099,32.138 L568.134,32.792 L568.134,32.792 Z" id="Shape"></path>
        </g>
    </g>
</svg>