<?xml version="1.0" encoding="UTF-8" standalone="no"?>
<svg width="139px" height="57px" viewBox="0 0 139 57" version="1.1" xmlns="http://www.w3.org/2000/svg" xmlns:xlink="http://www.w3.org/1999/xlink">
    <!-- Generator: Sketch 3.8.3 (29802) - http://www.bohemiancoding.com/sketch -->
    <title>BA-Speedmarque-logo-colour-01 Copy 6</title>
    <desc>Created with Sketch.</desc>
    <defs>
        <linearGradient x1="44.3507179%" y1="100.054171%" x2="58.3457227%" y2="-13.4886241%" id="linearGradient-1">
            <stop stop-color="#F6F5F6" offset="0%"></stop>
            <stop stop-color="#F6F5F6" offset="29%"></stop>
            <stop stop-color="#F1F1F4" offset="38%"></stop>
            <stop stop-color="#E2E6EF" offset="49%"></stop>
            <stop stop-color="#C9D4E6" offset="61%"></stop>
            <stop stop-color="#A6BBDA" offset="73%"></stop>
            <stop stop-color="#799BCB" offset="87%"></stop>
            <stop stop-color="#4575B9" offset="100%"></stop>
        </linearGradient>
    </defs>
    <g id="Symbols" stroke="none" stroke-width="1" fill="none" fill-rule="evenodd">
        <g id="APxBA-lockup" transform="translate(-132.000000, -21.000000)">
            <g id="Group-2">
                <g id="BA-Speedmarque-logo-colour-01-Copy-6" transform="translate(132.637940, 21.547059)">
                    <g id="Layer_1">
                        <path d="M5.56293991,36.4300918 C6.04672479,36.1213474 6.32938699,35.5699017 6.30205812,34.9881459 L6.30205812,21.6962553 C6.33105113,21.1096108 6.04871017,20.5523869 5.56293991,20.2375426 L11.7592142,20.2375426 C14.5268012,20.2375426 17.2286889,21.3944527 17.2286889,24.6011056 C17.2286889,26.3029371 15.7750898,27.644282 14.2106229,27.9544681 C16.4649334,27.9335096 18.6453321,29.3419218 18.6453321,31.8820939 C18.6453321,35.5163005 14.9168914,36.4426669 12.2889156,36.4426669 L5.56293991,36.4426669 L5.56293991,36.4300918 Z M10.5889437,21.6291881 C10.2484489,21.6247633 9.90809327,21.6457779 9.57060306,21.6920636 L9.57060306,27.3634379 L10.1988535,27.3634379 C12.1000298,27.3634379 13.9396129,26.7640244 13.9396129,24.5130798 C13.9396129,22.2621352 12.4695889,21.6291881 10.5889437,21.6291881 L10.5889437,21.6291881 Z M10.9995649,28.8221506 C10.5478816,28.8221506 10.1413666,28.8221506 9.58702791,28.8640677 L9.58702791,34.8498197 C10.2861266,34.9781412 10.9955713,35.0384925 11.7058334,35.0300629 C13.2990438,35.0300629 14.9168914,34.3048983 14.9168914,31.8234101 C14.9168914,29.3419218 13.0033965,28.8221506 10.9995649,28.8221506 L10.9995649,28.8221506 Z M24.796438,21.6291881 C24.5209774,21.6383959 24.2465221,21.6678137 23.9751956,21.7172138 L23.9751956,27.3173292 C24.2379932,27.3173292 24.4720473,27.3634379 24.7266324,27.3634379 C26.5128348,27.3634379 27.8309289,26.3574292 27.8309289,24.3747536 C27.8309289,22.392078 26.5415782,21.6291881 24.796438,21.6291881 L24.796438,21.6291881 Z M32.7953395,36.5223092 C32.1712488,36.5595437 31.5451254,36.5073386 30.9352253,36.3672162 C29.8552915,36.0402634 28.3647365,33.5587751 27.7693357,32.5946834 C26.8495442,31.0102197 26.0447266,28.8221506 23.9793018,28.8221506 L23.9793018,35.0132961 C23.9509515,35.5984379 24.2395509,36.1522366 24.7307386,36.455242 L19.9716387,36.455242 C20.4560873,36.1471257 20.7389696,35.5952505 20.7107569,35.0132961 L20.7107569,21.6962553 C20.7304929,21.1116987 20.4503904,20.5588926 19.9716387,20.2375426 L25.7203358,20.2375426 C28.2169128,20.2375426 31.3376341,21.2142095 31.3376341,24.2783444 C31.3376341,26.8478585 29.2557845,28.1640532 26.9357746,28.1640532 C30.2207444,28.1640532 32.1794076,36.0905638 35.8216179,36.1282892 C34.8419829,36.4154571 33.826844,36.5566389 32.8076581,36.5474595 L32.7953395,36.5223092 Z M36.0638844,36.4510503 C36.5833601,36.1682835 36.9014118,35.6098451 36.8851269,35.0091044 L36.8851269,21.6962553 C36.8990841,21.0917774 36.5825506,20.5295421 36.0638844,20.2375426 L40.9133211,20.2375426 C40.3855169,20.5199466 40.0653993,21.0885481 40.0920786,21.6962553 L40.0920786,34.9881459 C40.0625433,35.592253 40.384424,36.1574143 40.9133211,36.4300918 L36.0474596,36.4300918 L36.0638844,36.4510503 Z M46.657912,36.4510503 C47.1627383,36.158721 47.462997,35.6008402 47.4339861,35.0091044 L47.4339861,22.0944671 L43.9313871,22.0944671 C43.0799199,22.0531962 42.2321446,22.2334933 41.4676597,22.61843 L42.555806,20.2375426 L54.184599,20.2375426 C55.129927,20.2636605 56.0753492,20.1892055 57.0055668,20.0153824 C56.5620959,21.235168 55.2440018,22.1363842 54.4843525,22.1363842 C53.564561,22.1154256 52.0206252,22.0525501 50.7189559,22.0525501 L50.7189559,34.9881459 C50.698113,35.5811859 51.0019453,36.1368859 51.5073487,36.4300918 L46.6620182,36.4300918 L46.657912,36.4510503 Z M57.5804366,36.4510503 C58.0912797,36.1618882 58.4004849,35.6050619 58.3811479,35.0091044 L58.3811479,21.6962553 C58.3982857,21.0964631 58.0905091,20.5357647 57.5804366,20.2375426 L62.4627229,20.2375426 C61.9378086,20.5230032 61.6188431,21.0895582 61.6414805,21.6962553 L61.6414805,34.9881459 C61.6161598,35.5911995 61.9368078,36.1541966 62.4627229,36.4300918 L57.5681179,36.4300918 L57.5804366,36.4510503 Z M71.9521794,32.7875018 C71.9521794,29.7024083 64.8361136,29.014969 64.8361136,24.0813344 C64.8361136,21.0339662 67.6735062,20.0363409 70.1741895,20.0363409 C71.286973,20.0363409 72.9007144,20.1956256 73.9190551,20.6734798 L74.0956222,23.6998894 C73.3756727,22.3151103 71.9804584,21.433958 70.4451995,21.3944527 C69.2913539,21.3944527 68.0882337,21.9770994 68.0882337,23.3184444 C68.0882337,26.5167139 75.3274859,27.3005624 75.3274859,31.9617363 C75.3274859,35.3444407 72.4285,36.7486612 69.5048769,36.7486612 C67.9773659,36.7486612 65.8955163,36.4510503 64.6061657,35.5498341 C64.5275273,34.9945843 64.4890985,34.4341715 64.4911918,33.8731529 C64.493651,33.2107226 64.5444348,32.549399 64.6431216,31.894669 C65.4643641,33.7683603 67.106849,35.2480315 69.196911,35.2480315 C70.7778027,35.2480315 71.9562856,34.5438254 71.9562856,32.7875018 L71.9521794,32.7875018 Z M87.2067579,36.4510503 C87.6815595,36.1368988 87.9531953,35.5855221 87.9171326,35.0091044 L87.9171326,28.9604768 C86.7978531,28.8551639 85.6739884,28.8089935 84.5500385,28.8221506 C83.4096902,28.8092489 82.269435,28.855417 81.13367,28.9604768 L81.13367,34.9881459 C81.1010906,35.5638331 81.3718945,36.1135213 81.8440447,36.4300918 L77.1383255,36.4300918 C77.6169354,36.1186331 77.8921201,35.5664364 77.8569126,34.9881459 L77.8569126,21.6962553 C77.8885794,21.1141596 77.6149544,20.5587082 77.1383255,20.2375426 L81.8399385,20.2375426 C81.3651315,20.5595508 81.0944129,21.1154555 81.1295637,21.6962553 L81.1295637,27.1454694 C82.2653748,27.2498054 83.4055942,27.295972 84.5459323,27.2837956 C85.8763451,27.2837956 87.0630404,27.2251117 87.9130264,27.1454694 L87.9130264,21.6962553 C87.945631,21.1159849 87.6755081,20.5613034 87.2026516,20.2375426 L91.8960522,20.2375426 C91.4223862,20.5597952 91.1543715,21.1165844 91.1938899,21.6962553 L91.1938899,34.9881459 C91.1578155,35.5625319 91.4257134,36.1126814 91.8960522,36.4300918 L87.2026516,36.4300918 L87.2067579,36.4510503 Z" id="Shape" fill="#FFFFFF"></path>
                        <path d="M11.7642981,55.8012163 C11.9420888,55.6688639 12.0497592,55.4598762 12.0558391,55.2353364 C12.0355192,55.0409062 11.9841991,54.8511748 11.9039093,54.6736482 L10.4503101,50.6328464 C9.45442001,50.5310574 8.45343688,50.4904644 7.45277521,50.511287 C6.50145881,50.5019508 5.55030086,50.5425241 4.60306392,50.6328464 C4.46755892,50.9975246 3.07144675,54.5940058 3.07144675,54.5940058 C2.95589517,54.8346706 2.87168746,55.089735 2.82096781,55.3527041 C2.84736743,55.5637222 2.99429898,55.7384366 3.19463312,55.7970246 L0,55.7970246 C0.489953948,55.5158746 0.871008697,55.0721617 1.07993382,54.5395137 L6.33177927,40.7068934 C6.35481417,40.6439291 6.36596044,40.5770815 6.36462897,40.5098834 C6.34715016,40.1177258 6.12441989,39.7654663 5.78154683,39.5877087 L9.88775907,39.5877087 L15.225835,54.5227469 C15.433714,55.0547405 15.8132465,55.4983675 16.3016626,55.7802578 L11.7642981,55.7802578 L11.7642981,55.8012163 Z M7.6170237,42.689569 L5.21078333,48.9771237 C5.93801248,49.0508789 6.66861482,49.0844615 7.39939445,49.0777245 C8.22186734,49.0943759 9.04457948,49.0607823 9.8631218,48.9771237 L7.6170237,42.689569 Z M17.1146926,55.805408 C17.6348661,55.5233808 17.9531948,54.964456 17.9359351,54.3634622 L17.9359351,41.0673799 C17.9523844,40.4611693 17.6353729,39.8964669 17.1146926,39.6044755 L21.9928728,39.6044755 C21.4658665,39.8898432 21.1463845,40.4589463 21.1716303,41.0673799 L21.1716303,54.3592705 C21.1452679,54.962586 21.4662193,55.5261157 21.9928728,55.8012163 L17.1187988,55.8012163 L17.1146926,55.805408 Z M29.4127983,41.0003126 C29.1482571,41.010096 28.8847638,41.0395156 28.6244055,41.0883384 L28.6244055,46.6884538 C28.8748845,46.6884538 29.1089386,46.7345625 29.3594175,46.7345625 C31.149726,46.7345625 32.4678202,45.7285538 32.4678202,43.7458782 C32.4678202,41.7632026 31.1661509,41.0003126 29.4169045,41.0003126 L29.4127983,41.0003126 Z M37.7976837,55.8976255 C37.1737901,55.9356855 36.5477435,55.8848976 35.9375695,55.7467242 C34.8535295,55.4197714 33.3670807,52.9382831 32.7757861,51.9741914 C31.8601008,50.3897276 30.6610868,48.2016586 28.6079807,48.2016586 L28.6079807,54.3886124 C28.5762232,54.970309 28.858101,55.5232966 29.3429927,55.8305583 L24.5962113,55.8305583 C25.0880805,55.528212 25.3769147,54.9739627 25.3476482,54.3886124 L25.3476482,41.0673799 C25.373798,40.4771243 25.0866959,39.918191 24.5962113,39.6044755 L30.3449084,39.6044755 C32.8332731,39.6044755 35.9498882,40.5811423 35.9498882,43.6410856 C35.9498882,46.2105996 33.6750466,47.5267944 31.9545436,47.5267944 C35.3750184,47.7279961 37.4404432,55.4910303 40.8362807,55.4910303 C39.8522608,55.7773422 38.8331807,55.9184952 37.8100023,55.9102006 L37.7976837,55.8976255 Z M57.6019453,41.1679808 L52.7812521,55.7844495 C52.4237372,55.7848318 52.0734572,55.6816299 51.7711239,55.4868386 C51.2948033,55.0173679 50.5392602,53.0598425 50.2764627,52.3388696 L48.096064,46.7177957 L44.9589178,55.7844495 L43.4642565,55.7844495 L38.0727999,41.1679808 C37.8566253,40.5185886 37.4195693,39.9698174 36.8409362,39.6212423 L41.5302306,39.6212423 C41.31164,39.7715759 41.1855935,40.0273287 41.1976274,40.2961065 C41.2171456,40.4888296 41.2627482,40.6778591 41.3331324,40.8577947 L44.8439439,50.553204 L48.5847032,39.6212423 L52.6909154,50.1591839 L55.8116368,40.6230594 C55.8786972,40.4573194 55.9202502,40.2819911 55.9348231,40.1032882 C55.9300063,39.9040284 55.8243179,39.7215693 55.6556007,39.6212423 L58.7640034,39.6212423 C58.2098973,39.9805844 57.7982437,40.5285092 57.6019453,41.1679808 L57.6019453,41.1679808 Z M63.3506424,42.6686105 L60.9444021,48.9561651 C62.4924484,49.0890824 64.0486941,49.0890824 65.5967405,48.9561651 L63.3506424,42.6686105 Z M67.4897044,55.7844495 C67.6705715,55.6553068 67.7779625,55.4438836 67.7771392,55.2185696 C67.7512279,55.0261838 67.7029829,54.8376288 67.6334218,54.6568814 C67.5638607,54.476134 66.3399649,51.0394416 66.1798227,50.6160796 C65.1811774,50.5144173 64.1774692,50.473825 63.1740753,50.4945202 C62.2241311,50.4855329 61.2743576,50.5261056 60.3284702,50.6160796 C60.1929652,50.9807578 58.8050655,54.577239 58.8050655,54.577239 C58.6819517,54.8150325 58.5960507,55.071029 58.5504803,55.3359373 C58.572892,55.5445513 58.7150796,55.7193886 58.911827,55.7802578 L55.7213001,55.7802578 C56.2097162,55.4983675 56.5892486,55.0547405 56.7971277,54.5227469 L62.0612918,40.6901266 C62.0816414,40.6264551 62.0927097,40.5600752 62.0941415,40.4931166 C62.0767833,40.098568 61.8501124,39.7450553 61.5028469,39.5709419 L65.6090592,39.5709419 L70.9471351,54.5059801 C71.1574743,55.037741 71.5381616,55.4810259 72.0270689,55.763491 L67.5061292,55.763491 L67.4897044,55.7844495 Z M81.8244913,41.2895402 L78.0673071,47.9962651 L78.0673071,54.3215451 C78.0673071,54.8371246 78.2726177,55.5203722 78.7735756,55.763491 L74.1212371,55.763491 C74.5757796,55.4324957 74.8378269,54.8911955 74.8192932,54.3215451 L74.8192932,48.0130319 L71.5343234,42.6728022 C71.2427823,42.1739895 69.8918385,39.8434026 68.2206101,39.8434026 C69.1129963,39.5718386 70.0367528,39.4224263 70.9676661,39.399082 C72.5033895,39.399082 73.267145,39.5416 74.2074676,41.0464214 L77.2296398,45.9381389 C77.4842249,45.4602848 79.8740405,41.2098978 79.8740405,41.2098978 C80.0945249,40.8862004 80.2584559,40.5259852 80.3585735,40.1452052 C80.3585796,39.9158977 80.2313022,39.7063899 80.0300765,39.6044755 L83.3971706,39.6044755 C82.7267559,40.0096914 82.1817156,40.5994918 81.8244913,41.306307 L81.8244913,41.2895402 Z M90.6199979,52.1376678 C90.6199979,49.0525743 83.5039321,48.365135 83.5039321,43.4315004 C83.5039321,40.3841323 86.3372185,39.3865069 88.842008,39.3865069 C89.9588977,39.3865069 91.5603205,39.5416 92.5868736,40.0236458 L92.7634407,43.0500555 C92.0432676,41.6719823 90.6547571,40.7936944 89.1253366,40.7488104 C87.971491,40.7488104 86.772477,41.3314572 86.772477,42.6728022 C86.772477,45.8710717 94.0117292,46.6507284 94.0117292,51.316094 C94.0117292,54.6987984 91.1373806,56.103019 88.1891203,56.103019 C86.6575031,56.103019 84.5756535,55.805408 83.2821966,54.9041919 C83.1960426,54.3496565 83.153476,53.788975 83.1549041,53.2275106 C83.1593737,52.5662295 83.2129076,51.906244 83.3150463,51.2532185 C84.1362888,53.1269097 85.7787737,54.6065809 87.8729419,54.6065809 C89.4579398,54.6065809 90.640529,53.9023748 90.640529,52.1460512 L90.6199979,52.1376678 Z" id="Shape-Copy" fill="#FFFFFF"></path>
                        <path d="M131.614444,8.89898571 C128.945406,11.6026342 123.167965,13.9290295 120.32236,15.0188723 C116.437883,16.5069269 114.71738,17.0350815 112.520557,17.7560544 C110.05683,18.5692448 105.129375,20.090833 105.129375,20.090833 C115.3251,23.196885 122.506865,24.1358265 122.506865,24.1358265 C122.506865,24.1358265 125.853428,23.0795174 131.154548,20.1872422 C134.028897,18.6949959 135.437327,17.6931789 136.447456,16.7332788 C137.235168,16.029477 137.792642,15.0961265 138.044772,14.0589723 C138.081722,13.8641073 138.102327,13.6663811 138.106365,13.4679421 C138.110403,13.2695031 138.106365,13.2960823 138.106365,13.145181 C138.104222,13.0476995 138.091832,12.9507347 138.069409,12.8559535 C138.036019,12.6773726 137.99214,12.5010028 137.938011,12.3277989 C137.731189,11.8168061 137.408991,11.3629445 136.997688,11.0032207 C136.640448,10.7098015 136.028622,9.97625342 133.807161,9.17563812 C133.157055,8.96734433 132.496352,8.79523125 131.827967,8.66005864 L131.614444,8.89898571 Z" id="Shape" fill="url(#linearGradient-1)"></path>
                        <path d="M138.114578,13.41345 C138.103968,13.2323462 138.076469,13.0526875 138.032454,12.876912 C137.971988,12.6463619 137.873389,12.4280486 137.740912,12.2313897 C137.522142,11.8998248 137.268815,11.5934389 136.985369,11.3175984 C136.707355,11.0545434 136.407887,10.8161511 136.090215,10.6050089 C134.63411,9.70400915 133.005654,9.13225984 131.31469,8.92832764 C129.47161,8.71748965 127.617594,8.62229884 125.763091,8.64329182 C124.855618,8.64329182 118.987841,8.68101715 117.476755,8.70616737 C110.779523,8.84868528 102.579417,8.86545209 100.431868,8.86545209 C78.258322,8.97024467 68.604617,8.48400711 57.8627658,6.28336297 C48.7264436,4.43063019 43.6511652,2.67011488 43.6511652,2.67011488 C51.7116599,2.38507907 98.7483211,0.394020093 107.326198,0.155093015 C112.943497,-0.00419170312 116.934735,-0.0419170312 120.125262,0.155093015 C121.825164,0.240710183 123.518557,0.42967182 125.196434,0.720972936 C126.620639,0.97744989 128.019567,1.36322086 129.376558,1.87369129 C131.285947,2.59466423 132.899688,3.6383983 133.692187,4.7114743 C133.891391,4.92776465 134.077866,5.15591362 134.250632,5.39472191 C134.607873,5.90191799 135.0226,6.53067345 135.166317,6.76121713 C135.869464,7.81837628 136.505849,8.92023593 137.0716,10.0600875 C137.281017,10.4792578 137.46169,10.8984281 137.642363,11.3175984 C137.75785,11.5914661 137.859274,11.8712926 137.946223,12.155939 C138.029004,12.4627735 138.08128,12.7773436 138.102259,13.0948805 L138.114578,13.41345 Z" id="Shape" fill="#CB1E18"></path>
                    </g>
                </g>
            </g>
        </g>
    </g>
</svg>