<?xml version="1.0" encoding="UTF-8" standalone="no"?>
<svg width="102px" height="44px" viewBox="0 0 102 44" version="1.1" xmlns="http://www.w3.org/2000/svg" xmlns:xlink="http://www.w3.org/1999/xlink">
    <!-- Generator: Sketch 3.6.1 (26313) - http://www.bohemiancoding.com/sketch -->
    <title>AirPortr Logocolour</title>
    <desc>Created with Sketch.</desc>
    <defs>
        <path d="M8.61284368,4.07420812 C7.32961372,4.07420812 6.26320029,4.49652933 5.41323529,5.34048615 C4.56621517,6.18649974 4.13994429,7.26972621 4.13994429,8.59016556 C4.13994429,9.92088871 4.57136871,11.0154274 5.4364262,11.8737815 C6.30221991,12.734878 7.36605657,13.1633695 8.62756807,13.1633695 C9.93325272,13.1633695 11.0136543,12.7410483 11.8720858,11.8967486 C12.7323579,11.0510778 13.1623099,9.94454144 13.1623099,8.57542545 C13.1623099,7.23681806 12.7323579,6.14947807 11.8720858,5.31991856 C11.0136543,4.48933067 9.92662674,4.07420812 8.61284368,4.07420812 L8.61284368,4.07420812 Z M12.9797275,0.903713942 L17.1327397,0.903713942 L17.1327397,16.305069 L12.9797275,16.305069 L12.9797275,14.6778298 C12.1676778,15.3976955 11.3556281,15.9125708 10.5391611,16.2296545 C9.7249027,16.5446815 8.8403354,16.7027091 7.88729972,16.7027091 C5.75042366,16.7027091 3.90214551,15.9310816 2.33952038,14.3878267 C0.780576345,12.8449146 -0.000184054786,10.9256155 -0.000184054786,8.63438588 C-0.000184054786,6.25437279 0.754072456,4.30559352 2.26516224,2.78393457 C3.77625203,1.26570355 5.60906959,0.505731052 7.76582356,0.505731052 C8.75898318,0.505731052 9.69066851,0.681241164 10.562352,1.03054742 C11.4340354,1.38088206 12.2394592,1.90158491 12.9797275,2.60054021 L12.9797275,0.903713942 Z" id="path-1"></path>
    </defs>
    <g id="Desktop" stroke="none" stroke-width="1" fill="none" fill-rule="evenodd">
        <g id="AirPortr-Logo">
            <g id="Group-3" transform="translate(96.921848, 0.000000)" fill="#009BDF">
                <path d="M2.14419211,2.13412754 C2.2321703,2.13412754 2.31720361,2.13172799 2.39524284,2.1262433 C2.47328207,2.12144419 2.54101423,2.1060185 2.60285664,2.08133739 C2.66212228,2.05631349 2.71218518,2.01792065 2.74862803,1.96684447 C2.78507088,1.91508269 2.80347636,1.84275333 2.80347636,1.75122755 C2.80347636,1.67375629 2.78507088,1.61136793 2.755254,1.56577644 C2.72175603,1.52018494 2.67868721,1.48453445 2.62862431,1.45882496 C2.57782519,1.43517223 2.51819144,1.41631861 2.45156361,1.40877716 C2.38493577,1.39952174 2.31867605,1.3964366 2.25572931,1.3964366 L1.74074402,1.3964366 L1.74074402,2.13412754 L2.14419211,2.13412754 Z M2.31720361,1.10232005 C2.61426804,1.10232005 2.83329323,1.15716696 2.97611974,1.26788916 C3.11857815,1.37758298 3.19035951,1.54486605 3.19035951,1.76768162 C3.19035951,1.97609988 3.12851711,2.12932844 3.00262363,2.2266817 C2.87636205,2.32574893 2.7206517,2.38196701 2.53475637,2.39979226 L3.24704839,3.42508668 L2.82998024,3.42508668 L2.15229052,2.4279013 L1.74074402,2.4279013 L1.74074402,3.42508668 L1.35275654,3.42508668 L1.35275654,1.10232005 L2.31720361,1.10232005 Z M0.555431206,2.93489242 C0.64672238,3.14056834 0.767830429,3.32122035 0.927221873,3.47307773 C1.08477277,3.62596349 1.2706681,3.74696948 1.48674842,3.83301057 C1.70062008,3.91973725 1.93547399,3.96327198 2.1857885,3.96327198 C2.43315813,3.96327198 2.66212228,3.91973725 2.87636205,3.83301057 C3.09060182,3.74696948 3.27502472,3.62596349 3.43294372,3.47307773 C3.59049462,3.32122035 3.71344321,3.14056834 3.80326195,2.93489242 C3.89271258,2.72681696 3.93946249,2.50091625 3.93946249,2.2568475 C3.93946249,2.01963462 3.89271258,1.79784743 3.80326195,1.59114313 C3.71344321,1.38683839 3.59049462,1.20755756 3.43294372,1.05775694 C3.27502472,0.907956313 3.09060182,0.787978698 2.87636205,0.701252022 C2.66212228,0.613839759 2.43315813,0.571333404 2.1857885,0.571333404 C1.93547399,0.571333404 1.70062008,0.613839759 1.48674842,0.701252022 C1.2706681,0.787978698 1.08477277,0.907956313 0.927221873,1.05775694 C0.767830429,1.20755756 0.64672238,1.38683839 0.555431206,1.59114313 C0.467084909,1.79784743 0.422175542,2.01963462 0.422175542,2.2568475 C0.422175542,2.50091625 0.467084909,2.72681696 0.555431206,2.93489242 L0.555431206,2.93489242 Z M0.204990895,1.47527904 C0.319104862,1.23395263 0.474078991,1.02553438 0.669913283,0.847281919 C0.865747574,0.671086221 1.09434362,0.531912187 1.3553333,0.430102611 C1.61632299,0.329664207 1.89203706,0.279273609 2.1857885,0.279273609 C2.47990804,0.279273609 2.755254,0.329664207 3.01256259,0.430102611 C3.27355228,0.531912187 3.4973629,0.671086221 3.69172475,0.847281919 C3.88755904,1.02553438 4.04069262,1.23395263 4.15480659,1.47527904 C4.26928867,1.71694823 4.32597754,1.97609988 4.32597754,2.2568475 C4.32597754,2.5437654 4.26928867,2.80805895 4.15480659,3.05281328 C4.04069262,3.29516806 3.88755904,3.5046147 3.69172475,3.68355274 C3.4973629,3.86283358 3.27355228,4.00337879 3.01256259,4.10176043 C2.755254,4.20117046 2.47990804,4.25087547 2.1857885,4.25087547 C1.89203706,4.25087547 1.61632299,4.20117046 1.3553333,4.10176043 C1.09434362,4.00337879 0.865747574,3.86283358 0.669913283,3.68355274 C0.474078991,3.5046147 0.319104862,3.29516806 0.204990895,3.05281328 C0.0905088182,2.80805895 0.0341880538,2.5437654 0.0341880538,2.2568475 C0.0341880538,1.97609988 0.0905088182,1.71694823 0.204990895,1.47527904 L0.204990895,1.47527904 Z" id="Fill-1"></path>
            </g>
            <path d="M65.1235772,26.16345 C64.0788823,27.3848221 63.7306506,27.7704645 63.5443872,28.1783884 C64.4197517,27.4554375 65.0403845,26.6279348 67.4216853,25.5933849 C67.1941936,25.1762056 65.6897298,25.4713506 65.1235772,26.16345" id="Fill-4" fill="#009BDF"></path>
            <path d="M56.9892392,32.9091743 C56.9759872,32.9893879 56.719783,33.9330975 56.7002732,34.0112544 C58.8043875,34.5059049 60.8845747,34.39484 62.1332023,34.253952 C62.3058457,34.1010662 62.4582431,33.9543507 62.5981247,33.817919 C66.4238875,30.0300543 71.7850353,27.51121 75.3649009,26.5956094 C74.4148101,25.4167436 72.5389237,25.7406832 71.0749519,26.1458647 C65.1432343,27.7871585 62.1810566,31.1215078 55.4115216,26.5308215 C53.7049656,25.3725233 51.4679637,26.3025212 51.4679637,26.3025212 C51.4679637,26.3025212 57.331213,30.2230469 56.9892392,32.9091743" id="Fill-6" fill="#009BDF"></path>
            <path d="M68.1173388,25.6198143 C67.0461399,26.086013 65.2714837,27.3632604 64.5223807,27.9144719 C66.0467224,27.5123755 67.4032062,26.4257211 71.1671266,25.6026746 C70.6963144,25.2352003 69.5684267,24.9894176 68.1173388,25.6198143" id="Fill-8" fill="#009BDF"></path>
            <path d="M54.1432,37.1170978 C52.5566478,40.327356 49.694964,43.7422617 45.1683206,42.5010075 C50.5265235,45.3547608 56.6272034,41.8051374 60.5118637,37.860959 C60.3800805,37.8630157 60.2494016,37.8633585 60.1190908,37.8633585 C57.5647785,37.8633585 55.4948984,37.4725743 54.1432,37.1170978" id="Fill-10" fill="#009BDF"></path>
            <path d="M55.0562958,34.9532158 C56.696224,35.3642248 59.3241582,35.794773 62.5366504,35.5167678 C62.7276993,35.2610441 62.9091773,35.0087483 63.0744585,34.7615944 C58.0331979,35.1746602 55.2871005,34.2590596 55.2871005,34.2590596 L55.0562958,34.9532158 Z" id="Fill-12" fill="#009BDF"></path>
            <path d="M54.7820174,35.6800059 C54.6877813,35.9175616 54.585815,36.1612875 54.4761183,36.4084414 C55.9754286,36.7868851 58.3559932,37.203036 61.2555923,37.073803 C61.4808754,36.8242495 61.6936427,36.5746961 61.8990478,36.3265138 C61.3998913,36.3563368 60.9092012,36.3721053 60.4409658,36.3721053 C58.0534071,36.3721053 56.10758,36.0197139 54.7820174,35.6800059" id="Fill-14" fill="#009BDF"></path>
            <g id="Group-18" transform="translate(0.696488, 7.000000)">
                <g id="Fill-16">
                    <use fill="#009BDF" fill-rule="evenodd" xlink:href="#path-1"></use>
                    <use fill="none" xlink:href="#path-1"></use>
                </g>
            </g>
            <path d="M19.5676251,7.9037825 L23.7217416,7.9037825 L23.7217416,23.3051376 L19.5676251,23.3051376 L19.5676251,7.9037825 Z M21.6481804,1.55902341 C22.3737244,1.55902341 22.9984063,1.80480613 23.5178089,2.29465759 C24.0390521,2.78759419 24.3011461,3.38165478 24.3011461,4.07992451 C24.3011461,4.76859602 24.0442056,5.35614354 23.5277479,5.84359545 C23.0112902,6.3289906 22.3936023,6.57168818 21.6761568,6.57168818 C20.9358884,6.57168818 20.3078935,6.32316312 19.7866503,5.82851255 C19.2650391,5.3331764 19.006258,4.73088877 19.006258,4.02336363 C19.006258,3.34291915 19.2650391,2.76394146 19.7803925,2.28128866 C20.2964821,1.79966423 20.9174829,1.55902341 21.6481804,1.55902341 L21.6481804,1.55902341 Z" id="Fill-19" fill="#009BDF"></path>
            <path d="M43.9511663,11.0742081 C42.6410643,11.0742081 41.5569816,11.4893307 40.6930285,12.3199186 C39.8316521,13.1494781 39.4002277,14.2368181 39.4002277,15.5754255 C39.4002277,16.9445414 39.8316521,18.0510778 40.6930285,18.8967486 C41.5569816,19.7410483 42.6410643,20.1633695 43.9511663,20.1633695 C45.2181994,20.1633695 46.2842448,19.734878 47.1526152,18.8737815 C48.0209857,18.0154274 48.4531463,16.9208887 48.4531463,15.5901656 C48.4531463,14.2697262 48.0276117,13.1864997 47.1743337,12.3404862 C46.32216,11.4965293 45.2461758,11.0742081 43.9511663,11.0742081 L43.9511663,11.0742081 Z M39.5809695,7.90371394 L39.5809695,9.60054021 C40.3330173,8.90158491 41.145067,8.38088206 42.0167505,8.03054742 C42.888434,7.68124116 43.8234323,7.50573105 44.8180643,7.50573105 C46.9784994,7.50573105 48.8146299,8.26570355 50.3238792,9.78393457 C51.834969,11.3055935 52.5925385,13.2543728 52.5925385,15.6343859 C52.5925385,17.9256155 51.8121462,19.8449146 50.2491529,21.3878267 C48.6868959,22.9310816 46.8371453,23.7027091 44.6932752,23.7027091 C43.7406076,23.7027091 42.8538317,23.5446815 42.031843,23.2296545 C41.2116949,22.9125708 40.3930192,22.3976955 39.5809695,21.6778298 C39.5809695,21.6778298 39.3969147,25.7173047 39.5379007,28.0668092 C39.7900557,32.2917352 39.9211027,39.4417155 46.5665848,41.769624 C38.282647,40.28293 36.5922879,33.3516517 35.8914072,28.7832469 C35.4599828,25.980227 35.4581423,7.90371394 35.4581423,7.90371394 L39.5809695,7.90371394 Z" id="Fill-21" fill="#009BDF"></path>
            <path d="M84.5271481,2.22517341 L88.6816327,2.22517341 L88.6816327,7.90388534 L91.1472306,7.90388534 L91.1472306,11.2306932 L88.6816327,11.2306932 L88.6816327,23.3069544 L84.5271481,23.3069544 L84.5271481,11.2306932 L82.400211,11.2306932 L82.400211,7.90388534 L84.5271481,7.90388534 L84.5271481,2.22517341 Z" id="Fill-22" fill="#009BDF"></path>
            <path d="M92.5338994,7.90371394 L96.0924146,7.90371394 L96.0924146,9.84358058 C96.4756166,9.07778061 96.9891295,8.49674615 97.6266953,8.10082002 C98.2672059,7.70523669 98.9680865,7.50710222 99.728969,7.50710222 C100.266409,7.50710222 100.825936,7.63873481 101.417488,7.90371394 L101.414175,11.3138206 C100.929006,11.0875771 99.9229628,10.7156465 98.9198642,10.8894426 C98.2926055,10.9991364 97.7426498,11.2576025 97.3012864,11.9946078 C96.8595549,12.7305848 96.6401616,14.1747725 96.6401616,16.3264853 L96.6534136,17.0768596 L96.6534136,23.305069 L92.5338994,23.305069 L92.5338994,7.90371394 Z" id="Fill-23" fill="#009BDF"></path>
            <path d="M72.248338,7.90371394 L75.8083256,7.90371394 L75.8083256,9.84358058 C76.1937364,9.07778061 76.706513,8.49674615 77.3477599,8.10082002 C77.9867981,7.70523669 78.6839976,7.50710222 79.444512,7.50710222 C79.9841606,7.50710222 80.5455277,7.63873481 81.1352392,7.90371394 L81.1300857,11.3138206 C80.6467578,11.0875771 79.6425549,10.7156465 78.6390882,10.8894426 C78.0118295,10.9991364 77.4604014,11.2576025 77.019038,11.9946078 C76.578779,12.7305848 76.3564408,14.1747725 76.3564408,16.3264853 L76.3726376,17.0768596 L76.3726376,23.305069 L72.248338,23.305069 L72.248338,7.90371394 Z" id="Fill-24" fill="#009BDF"></path>
            <path d="M25.4224079,7.90371394 L28.980555,7.90371394 L28.980555,9.84358058 C29.3678062,9.07778061 29.880951,8.49674615 30.5203573,8.10082002 C31.1593955,7.70523669 31.8580675,7.50710222 32.6185819,7.50710222 C33.1567581,7.50710222 33.72107,7.63873481 34.308941,7.90371394 L34.3078367,11.3138206 C33.8208277,11.0875771 32.8144161,10.7156465 31.8131581,10.8894426 C31.1858994,10.9991364 30.6359437,11.2576025 30.1923717,11.9946078 C29.7513764,12.7305848 29.5319831,14.1747725 29.5319831,16.3264853 L29.5470756,17.0768596 L29.5470756,23.305069 L25.4224079,23.305069 L25.4224079,7.90371394 Z" id="Fill-25" fill="#009BDF"></path>
            <path d="M63.6425252,11.473905 C63.6425252,11.2983949 63.4897597,11.1561357 63.3001833,11.1561357 L61.3922714,11.1561357 C61.2049036,11.1561357 61.0521381,11.2983949 61.0521381,11.473905 L61.0521381,11.9651276 L63.6425252,11.9651276 L63.6425252,11.473905 Z" id="Fill-26" fill="#009BDF"></path>
            <path d="M67.6676193,15.8257673 L67.6676193,17.3193172 C67.6676193,18.4213973 66.709062,19.3126596 65.5274303,19.3126596 L59.1687055,19.3126596 C57.9848651,19.3126596 57.0274122,18.4213973 57.0274122,17.3193172 L57.0274122,15.8257673 L57.0274122,13.95823 C57.0274122,12.8571783 57.9848651,11.9648877 59.1687055,11.9648877 L60.5472759,11.9648877 L60.5472759,11.4740078 C60.5472759,11.0400316 60.9260606,10.6866119 61.3920873,10.6866119 L63.3022079,10.6866119 C63.7682346,10.6866119 64.1488599,11.0400316 64.1488599,11.4740078 L64.1488599,11.9648877 L65.5274303,11.9648877 C66.709062,11.9648877 67.6676193,12.8571783 67.6676193,13.95823 L67.6676193,15.8257673 Z M62.3469636,7.47086899 C57.5320904,7.47086899 53.6297608,11.1055051 53.6297608,15.5847837 C53.6297608,20.0650907 57.5320904,23.6966417 62.3469636,23.6966417 C67.1607324,23.6966417 71.0678474,20.0650907 71.0678474,15.5847837 C71.0678474,11.1055051 67.1607324,7.47086899 62.3469636,7.47086899 L62.3469636,7.47086899 Z" id="Fill-27" fill="#009BDF"></path>
        </g>
    </g>
</svg>