<?xml version="1.0" encoding="UTF-8" standalone="no"?>
<svg width="40px" height="35px" viewBox="0 0 40 35" version="1.1" xmlns="http://www.w3.org/2000/svg" xmlns:xlink="http://www.w3.org/1999/xlink">
    <!-- Generator: Sketch 39.1 (31720) - http://www.bohemiancoding.com/sketch -->
    <title>Fill 1</title>
    <desc>Created with Sketch.</desc>
    <defs></defs>
    <g id="Page-1" stroke="none" stroke-width="1" fill="none" fill-rule="evenodd">
        <g id="512" transform="translate(-129.000000, -158.000000)" fill="#FFFFFF">
            <path d="M152.784441,164.134244 C154.60477,158.951376 158.838922,157.08037 163.185486,158.416588 C167.220012,159.656978 169.653003,163.700011 168.845882,167.822112 C168.102074,171.620418 164.397244,174.657043 160.917452,174.320786 C160.880412,172.681829 160.952984,172.581919 162.518987,172.115027 C165.929868,171.097877 167.765702,167.512712 166.577202,164.189248 C165.385256,160.855686 161.675258,159.218233 158.416196,160.58754 C155.153474,161.95835 153.717971,165.737749 155.289358,168.917901 C155.649849,169.647567 155.828587,170.320296 155.330058,171.028047 C154.963107,171.549084 154.528537,171.688099 154.174937,171.044376 C153.611158,170.017557 153.102509,168.960658 152.568879,167.913427 C151.231143,168.558654 150.681578,170.151416 151.37521,171.626004 C152.048385,173.05762 153.716894,173.709293 155.185345,173.114343 C156.690405,172.504569 157.49731,170.792345 156.816383,169.308732 C156.201783,167.969721 156.071067,166.664013 156.386766,165.244429 C156.59716,164.298827 157.124329,164.022946 158.011774,164.157019 C159.813583,164.429247 160.980764,165.971517 160.660543,167.803419 C160.273133,170.02164 159.933316,172.261777 159.320869,174.421126 C159.02649,175.459547 158.337595,176.551039 157.513246,177.249121 C151.770588,182.112491 145.954926,186.890132 140.140988,191.668847 C138.533638,192.98981 136.641168,192.770652 135.291373,191.169296 C133.490211,189.033152 131.700893,186.886694 129.935478,184.721114 C128.528616,182.995139 128.717475,181.163452 130.441974,179.731836 C136.149747,174.993729 141.869363,170.269159 147.582088,165.536854 C148.733979,164.582658 150.057718,164.127798 151.548134,164.134029 C151.97366,164.135748 152.399186,164.134244 152.784441,164.134244" id="Fill-1"></path>
        </g>
    </g>
</svg>